# xmcd
#
# Track frame offsets:
#	150
#	17597
#	30256
#	45668
#	56920
#	67185
#	79174
#	93428
#	109437
#	123011
#	143309
#	163675
#
# Disc length: 2353 seconds
# Revision: 0
# Processed by: cddbd v1.5.2PL0 Copyright (c) Steve Scherf et al.
# Submitted via: dBpowerAMP V12.0
#
DISCID=97092f0c
DTITLE=David Church - Falling
DYEAR=2012
DGENRE=Country
TTITLE0=Falling
TTITLE1=A Dime At A Time
TTITLE2=Saginaw Michigan
TTITLE3=Are You Teasing Me
TTITLE4=Lord Have Mercy On The Working Man
TTITLE5=Memories To spare
TTITLE6=Long Black Veil
TTITLE7=The Old Red White And Blue
TTITLE8=Be Careful Of Stones That You Throw
TTITLE9=Thy Burdens Are Greater Than Mine
TTITLE10=The First Fall Of Snow
TTITLE11=A Wound Time Can't Erase
EXTD=
EXTT0=
EXTT1=
EXTT2=
EXTT3=
EXTT4=
EXTT5=
EXTT6=
EXTT7=
EXTT8=
EXTT9=
EXTT10=
EXTT11=
PLAYORDER=
